<svg version="1.1" xmlns="http://www.w3.org/2000/svg" xmlns:xlink="http://www.w3.org/1999/xlink" width="421.09808" height="220" viewBox="0,0,421.09808,220"><defs><linearGradient x1="29.66667" y1="70" x2="249.66667" y2="290" gradientUnits="userSpaceOnUse" id="color-1"><stop offset="0" stop-color="#ff6b6b"/><stop offset="1" stop-color="#6b6bff"/></linearGradient><linearGradient x1="354.81689" y1="72.7693" x2="201.12137" y2="298.69321" gradientTransform="translate(-50.97366,-102.1216) rotate(0.18236) scale(0.48541,0.48541)" gradientUnits="userSpaceOnUse" id="color-2"><stop offset="0" stop-color="#ffd166"/><stop offset="1" stop-color="#ff66b3"/></linearGradient></defs><g transform="translate(-29.66667,-70)"><g data-paper-data="{&quot;isPaintingLayer&quot;:true}" fill-rule="nonzero" stroke="none" stroke-width="1" stroke-linecap="butt" stroke-linejoin="miter" stroke-miterlimit="10" stroke-dasharray="" stroke-dashoffset="0" style="mix-blend-mode: normal"><path d="M29.66667,180c0,-60.75132 49.24868,-110 110,-110c60.75132,0 110,49.24868 110,110c0,60.75132 -49.24868,110 -110,110c-60.75132,0 -110,-49.24868 -110,-110z" fill="url(#color-1)"/><path d="M77.66667,180c0,-34.24166 27.75834,-62 62,-62c34.24165,0 62,27.75834 62,62c0,34.24166 -27.75835,62 -62,62c-34.24166,0 -62,-27.75834 -62,-62z" fill="#ffffff"/><path d="M206.66667,253c0,-7.73199 6.26801,-14 14,-14c7.73199,0 14,6.26801 14,14c0,7.73199 -6.26801,14 -14,14c-7.73199,0 -14,-6.26801 -14,-14z" fill="#ffd166"/><g font-family="Sans Serif" font-weight="normal" font-size="40" text-anchor="start"><text transform="translate(105.68145,210.04848) rotate(-0.18236) scale(2.06013,2.06013)" font-size="40" xml:space="preserve" fill="url(#color-2)" fill-rule="nonzero" stroke="none" stroke-width="1" stroke-linecap="butt" stroke-linejoin="miter" stroke-miterlimit="10" stroke-dasharray="" stroke-dashoffset="0" font-family="Sans Serif" font-weight="normal" text-anchor="start" style="mix-blend-mode: normal"><tspan x="0" dy="0">Gr  dient</tspan></text><text transform="translate(201.49514,207.41021) scale(2.06791,2.06791)" font-size="40" xml:space="preserve" fill="#000000" fill-rule="nonzero" stroke="none" stroke-width="1" stroke-linecap="butt" stroke-linejoin="miter" stroke-miterlimit="10" stroke-dasharray="" stroke-dashoffset="0" font-family="Sans Serif" font-weight="normal" text-anchor="start" style="mix-blend-mode: normal"><tspan x="0" dy="0">a</tspan></text></g></g></g></svg>